:version 1.10
:name ASF
:units
  mass 1
  length 1
  angle deg
:documentation
  ASF file generated by Kaydara
:root
  axis xyz
  order  tx ty tz rx ry rz
  position 0 0 0
  orientation 0 0 0
:bonedata
  begin
    id 1
    name lfemurDummy
    direction 0.61522 -0.761478 0.204097
    length 5.68318
    axis 0 -0 0 xyz
  end
  begin
    id 2
    name lfemur
    direction 0.34202 -0.939693 -5.84747e-008
    length 16.9147
    axis 0 -0 20 xyz
    dof rx ry rz
    limits( -inf , inf )
( -inf , inf )
( -inf , inf )

  end
  begin
    id 3
    name ltibia
    direction 0.34202 -0.939693 1.20839e-009
    length 18.0532
    axis 0 -0 20 xyz
    dof rz ry rx
    limits( -inf , inf )
( -inf , inf )
( -inf , inf )

  end
  begin
    id 4
    name lfoot
    direction 0.0841971 -0.23133 0.969225
    length 5.23822
    axis -90 7.62852e-016 20 xyz
    dof ry rx rz
    limits( -inf , inf )
( -inf , inf )
( -inf , inf )

  end
  begin
    id 5
    name ltoes
    direction 0 0 0
    length 0
    axis 0 0 0 xyz
    dof rz ry rx
    limits( -inf , inf )
( -inf , inf )
( -inf , inf )

  end
  begin
    id 6
    name rfemurDummy
    direction -0.625247 -0.75382 0.202044
    length 5.74091
    axis 0 -0 0 xyz
  end
  begin
    id 7
    name rfemur
    direction -0.34202 -0.939693 -1.47013e-008
    length 16.4922
    axis 0 -0 -20 xyz
    dof rx ry rz
    limits( -inf , inf )
( -inf , inf )
( -inf , inf )

  end
  begin
    id 8
    name rtibia
    direction -0.34202 -0.939693 -7.74345e-010
    length 18.2421
    axis 0 -0 -20 xyz
    dof rz ry rx
    limits( -inf , inf )
( -inf , inf )
( -inf , inf )

  end
  begin
    id 9
    name rfoot
    direction -0.124331 -0.341598 0.931586
    length 5.45787
    axis -90 -7.62852e-016 -20 xyz
    dof ry rx rz
    limits( -inf , inf )
( -inf , inf )
( -inf , inf )

  end
  begin
    id 10
    name rtoes
    direction 0 0 0
    length 0
    axis 0 0 0 xyz
    dof rz ry rx
    limits( -inf , inf )
( -inf , inf )
( -inf , inf )

  end
  begin
    id 11
    name lowerbackDummy
    direction 0 0 0
    length 0
    axis 0 -0 0 xyz
  end
  begin
    id 12
    name lowerback
    direction -0.0218484 0.994884 -0.0986304
    length 4.45607
    axis 0 -0 0 xyz
    dof rx ry rz
    limits( -inf , inf )
( -inf , inf )
( -inf , inf )

  end
  begin
    id 13
    name upperback
    direction -0.00973057 0.999717 -0.0217111
    length 4.47449
    axis 0 -0 0 xyz
    dof rx ry rz
    limits( -inf , inf )
( -inf , inf )
( -inf , inf )

  end
  begin
    id 14
    name thorax
    direction -0.000928171 0.999699 0.0245198
    length 4.50973
    axis 0 -0 0 xyz
    dof rx ry rz
    limits( -inf , inf )
( -inf , inf )
( -inf , inf )

  end
  begin
    id 15
    name rclavicle
    direction -0.9009 0.425937 -0.0834055
    length 7.28587
    axis 0 -0 0 xyz
    dof rx ry rz
    limits( -inf , inf )
( -inf , inf )
( -inf , inf )

  end
  begin
    id 16
    name rhumerus
    direction -1 -2.23604e-007 -1.42637e-007
    length 13.5704
    axis 180 30 90 xyz
    dof rx ry rz
    limits( -inf , inf )
( -inf , inf )
( -inf , inf )

  end
  begin
    id 17
    name rradius
    direction -1 5.68281e-008 -4.4952e-007
    length 8.06782
    axis 180 30 90 xyz
    dof rz ry rx
    limits( -inf , inf )
( -inf , inf )
( -inf , inf )

  end
  begin
    id 18
    name rwrist
    direction -1 1.51393e-007 1.38143e-007
    length 4.03391
    axis -90 -90 0 xyz
    dof rz rx ry
    limits( -inf , inf )
( -inf , inf )
( -inf , inf )

  end
  begin
    id 19
    name rthumb
    direction 0 0 0
    length 0
    axis 0 0 0 xyz
    dof ry rx rz
    limits( -inf , inf )
( -inf , inf )
( -inf , inf )

  end
  begin
    id 20
    name rhand
    direction -1 -3.34077e-007 -5.59631e-007
    length 1.29744
    axis -90 -90 0 xyz
    dof ry rx rz
    limits( -inf , inf )
( -inf , inf )
( -inf , inf )

  end
  begin
    id 21
    name rfingers
    direction 0 0 0
    length 0
    axis 0 0 0 xyz
    dof rz ry rx
    limits( -inf , inf )
( -inf , inf )
( -inf , inf )

  end
  begin
    id 22
    name lclavicle
    direction 0.940017 0.332249 -0.0773232
    length 8.29589
    axis 0 -0 0 xyz
    dof rx ry rz
    limits( -inf , inf )
( -inf , inf )
( -inf , inf )

  end
  begin
    id 23
    name lhumerus
    direction 1 7.41158e-008 -1.44768e-008
    length 12.0042
    axis 180 -30 -90 xyz
    dof rx ry rz
    limits( -inf , inf )
( -inf , inf )
( -inf , inf )

  end
  begin
    id 24
    name lradius
    direction 1 -1.32972e-007 3.10821e-007
    length 8.1902
    axis 180 -30 -90 xyz
    dof rz ry rx
    limits( -inf , inf )
( -inf , inf )
( -inf , inf )

  end
  begin
    id 25
    name lwrist
    direction 1 3.08957e-007 4.01394e-007
    length 4.09509
    axis -90 90 0 xyz
    dof rz rx ry
    limits( -inf , inf )
( -inf , inf )
( -inf , inf )

  end
  begin
    id 26
    name lthumb
    direction 0 0 0
    length 0
    axis 0 0 0 xyz
    dof ry rx rz
    limits( -inf , inf )
( -inf , inf )
( -inf , inf )

  end
  begin
    id 27
    name lhand
    direction 1 -1.64125e-007 -6.99514e-007
    length 1.37229
    axis -90 90 0 xyz
    dof ry rx rz
    limits( -inf , inf )
( -inf , inf )
( -inf , inf )

  end
  begin
    id 28
    name lfingers
    direction 0 0 0
    length 0
    axis 0 0 0 xyz
    dof rz ry rx
    limits( -inf , inf )
( -inf , inf )
( -inf , inf )

  end
  begin
    id 29
    name lowerneck
    direction -0.030798 0.998024 0.0547665
    length 3.93918
    axis 0 -0 0 xyz
    dof rx ry rz
    limits( -inf , inf )
( -inf , inf )
( -inf , inf )

  end
  begin
    id 30
    name upperneck
    direction 0.0531588 0.996611 -0.0627736
    length 3.95491
    axis 0 -0 0 xyz
    dof rx ry rz
    limits( -inf , inf )
( -inf , inf )
( -inf , inf )

  end
  begin
    id 31
    name head
    direction 0 0 0
    length 0
    axis 0 0 0 xyz
    dof rx ry rz
    limits( -inf , inf )
( -inf , inf )
( -inf , inf )

  end
:hierarchy
  begin
    root lfemurDummy rfemurDummy lowerbackDummy
    lfemurDummy lfemur
    lfemur ltibia
    ltibia lfoot
    lfoot ltoes
    rfemurDummy rfemur
    rfemur rtibia
    rtibia rfoot
    rfoot rtoes
    lowerbackDummy lowerback
    lowerback upperback
    upperback thorax
    thorax rclavicle lclavicle lowerneck
    rclavicle rhumerus
    rhumerus rradius
    rradius rwrist
    rwrist rthumb rhand
    rhand rfingers
    lclavicle lhumerus
    lhumerus lradius
    lradius lwrist
    lwrist lthumb lhand
    lhand lfingers
    lowerneck upperneck
    upperneck head
  end

:SAMPLES-PER-SECOND 30
:FULLY-SPECIFIED
:DEGREES
1
root  -1.739111097 39.21422283 6.017244519 156.1099854 -75.74199677 -157.348999
lowerback  13.59899998 6.111700058 -2.278899908
upperback  3.442359924 7.32667017 -3.380320072
thorax  -3.773910046 3.520260096 -3.470619917
lowerneck  2.945729971 9.099570274 -4.984300137
upperneck  10.7258997 11.38500023 6.723670006
head  2.2177701 5.533919811 3.07171011
lclavicle  0 -9.442270133e-015 7.951389973e-016
lhumerus  -2.570709944 1.298609972 66.29850006
lradius  2.806262456e-031 -2.143300041e-031 142.6289978
lwrist  -1.412450015e-030 6.620859447e-032 28.4211998
lhand  -1.496451383e-031 -27.76390076 20.11240005
lfingers  90 7.125020027 -90
lthumb  89.89689403 5.08795885 91.16245106
rclavicle  0 -9.442270133e-015 7.951389973e-016
rhumerus  -4.579619884 23.83329964 -84.6914978
rradius  -2.530512263e-031 2.46279348e-031 135.7769928
rwrist  1.059337512e-030 -1.765562519e-031 -4.741129875
rhand  -7.920061211e-032 -33.2840004 9.303460121
rfingers  -90 -7.125020027 -90
rthumb  -92.93752616 -24.25625642 -97.11982154
rfemur  -7.667180061 15.68420029 7.420539856
rtibia  -0 0 36.73609924
rfoot  -4.604591999e-032 -16.54669952 -5.295400143
rtoes  5.373923086 19.29304026 -105.8922705
lfemur  -23.50110054 3.674479961 5.303450108
ltibia  -0 0 51.9715004
lfoot  4.421179041e-032 -3.286829948 5.118919849
ltoes  -4.250644065 -19.5611806 -102.515957
2
root  -1.739111097 39.21422283 6.017244519 156.1099854 -75.74199677 -157.348999
lowerback  13.59899998 6.111700058 -2.278899908
upperback  3.442359924 7.32667017 -3.380320072
thorax  -3.773910046 3.520260096 -3.470619917
lowerneck  2.945729971 9.099570274 -4.984300137
upperneck  10.7258997 11.38500023 6.723670006
head  2.2177701 5.533919811 3.07171011
lclavicle  0 -9.442270133e-015 7.951389973e-016
lhumerus  -2.570709944 1.298609972 66.29850006
lradius  2.806262456e-031 -2.143300041e-031 142.6289978
lwrist  -1.412450015e-030 6.620859447e-032 28.4211998
lhand  -1.496451383e-031 -27.76390076 20.11240005
lfingers  90 7.125020027 -90
lthumb  89.89689403 5.08795885 91.16245106
rclavicle  0 -9.442270133e-015 7.951389973e-016
rhumerus  -4.579619884 23.83329964 -84.6914978
rradius  -2.530512263e-031 2.46279348e-031 135.7769928
rwrist  1.059337512e-030 -1.765562519e-031 -4.741129875
rhand  -7.920061211e-032 -33.2840004 9.303460121
rfingers  -90 -7.125020027 -90
rthumb  -92.93752616 -24.25625642 -97.11982154
rfemur  -7.667180061 15.68420029 7.420539856
rtibia  -0 0 36.73609924
rfoot  -4.604591999e-032 -16.54669952 -5.295400143
rtoes  5.373923086 19.29304026 -105.8922705
lfemur  -23.50110054 3.674479961 5.303450108
ltibia  -0 0 51.9715004
lfoot  4.421179041e-032 -3.286829948 5.118919849
ltoes  -4.250644065 -19.5611806 -102.515957
3
root  -1.552573339 39.48444457 5.94537765 159.8569946 -75.59600067 -160.5979919
lowerback  13.9623003 6.242619991 -2.877010107
upperback  3.377470016 7.370560169 -3.535209894
thorax  -4.091119766 3.53531003 -3.362610102
lowerneck  2.621309996 9.088459969 -5.496469975
upperneck  11.18239975 11.33930016 7.033339977
head  2.384119987 5.498300076 3.302380085
lclavicle  0 -9.442270133e-015 7.951389973e-016
lhumerus  -1.42730999 2.166189909 66.27539825
lradius  2.840790141e-031 -2.097321009e-031 143.5619965
lwrist  -7.062250077e-031 2.869039094e-031 29.09359932
lhand  -1.496451383e-031 -27.76390076 20.11240005
lfingers  90 7.125020027 -90
lthumb  89.89689403 5.08795885 91.16245106
rclavicle  0 -9.442270133e-015 7.951389973e-016
rhumerus  -4.180689812 23.44729996 -83.93270111
rradius  -2.535836681e-031 2.457310799e-031 135.901001
rwrist  1.412450015e-030 -0 -5.207180023
rhand  -7.920061211e-032 -33.2840004 9.303460121
rfingers  -90 -7.125020027 -90
rthumb  -92.93752616 -24.25625642 -97.11982154
rfemur  -8.315099716 15.77690029 6.320469856
rtibia  -0 0 35.62450027
rfoot  -4.572759884e-032 -15.14649963 -4.376150131
rtoes  5.373923086 19.29304026 -105.8922705
lfemur  -23.79409981 2.409990072 4.716149807
ltibia  -0 0 50.87870026
lfoot  4.415161548e-032 -1.36627996 5.765079975
ltoes  -4.250644065 -19.5611806 -102.515957
4
root  -1.371028855 39.72844402 5.88115557 160.8439941 -75.1780014 -160.696991
lowerback  13.29209995 5.971139908 -2.268260002
upperback  3.675070047 7.108709812 -3.988120079
thorax  -3.290649891 3.407409906 -4.021540165
lowerneck  2.122339964 9.258879662 -5.050049782
upperneck  11.0880003 11.5994997 7.026639938
head  2.449820042 5.654640198 3.248500109
lclavicle  0 -9.442270133e-015 7.951389973e-016
lhumerus  0.5671659708 3.55031991 64.84889984
lradius  2.868539022e-031 -2.059205652e-031 144.3269958
lwrist  -1.412450015e-030 1.158650403e-031 29.78919983
lhand  -1.496451383e-031 -27.76390076 20.11240005
lfingers  90 7.125020027 -90
lthumb  89.89689403 5.08795885 91.16245106
rclavicle  0 -9.442270133e-015 7.951389973e-016
rhumerus  -2.74635005 23.29809952 -83.72679901
rradius  -2.539479017e-031 2.453546486e-031 135.9859924
rwrist  7.062250077e-031 -1.765562519e-031 -5.464829922
rhand  -7.920061211e-032 -33.2840004 9.303460121
rfingers  -90 -7.125020027 -90
rthumb  -92.93752616 -24.25625642 -97.11982154
rfemur  -9.296990395 15.99330044 6.066359997
rtibia  -0 0 34.65039825
rfoot  -4.544139462e-032 -13.75039959 -4.32682991
rtoes  5.373923086 19.29304026 -105.8922705
lfemur  -24.4843998 1.421380043 5.098939896
ltibia  -0 0 49.86240005
lfoot  4.414142688e-032 0.5929669738 6.096300125
ltoes  -4.250644065 -19.5611806 -102.515957
